#!OML:ASF H:\Dans Jumps\Project 1\Capture day 1\Session 1\subject.ASF
:FULLY-SPECIFIED
:DEGREES
257
root 0.119957 20.9906 -3.8755 9.3414 2.92626 -1.9101
lowerback -3.92645 -0.350293 -1.74178
upperback 1.77507 -0.423252 1.39581
thorax 4.05833 -0.276249 2.38837
lowerneck -6.64249 0.0120092 -2.8571
upperneck 23.6213 -0.015319 2.14128
head 8.4107 -0.0437135 1.20356
rclavicle -1.79285e-015 1.63784e-015
rhumerus -26.9314 -14.369 -74.4154
rradius 26.7815
rwrist 38.8358
rhand -16.7563 -24.2031
rfingers 7.12502
rthumb 9.47051 -53.9703
lclavicle -1.79285e-015 1.63784e-015
lhumerus -24.7446 3.75086 73.7357
lradius 15.8869
lwrist 4.56848
lhand -24.2901 -6.46478
lfingers 7.12502
lthumb 2.19722 23.5037
rfemur -8.94292 -7.188 20.407
rtibia 50.1833
rfoot 27.4504 -6.49568
rtoes 24.3668
lfemur -17.1298 5.52533 -14.0427
ltibia 53.1642
lfoot 28.4809 -2.9715
ltoes 0.914777
258
root 0.119756 21.1229 -3.69615 8.67102 2.82377 -2.01044
lowerback -2.7118 -0.232344 -1.57043
upperback 2.07457 -0.288783 1.40148
thorax 3.67255 -0.203445 2.30899
lowerneck -6.65241 -0.0452524 -2.82041
upperneck 23.66 -0.0959872 2.12313
head 8.42803 -0.0801312 1.18432
rclavicle -1.53825e-015 -4.04403e-015
rhumerus -27.3675 -14.5943 -74.3388
rradius 26.6262
rwrist 38.9418
rhand -16.6394 -24.1797
rfingers 7.12502
rthumb 9.58324 -53.9418
lclavicle -1.53825e-015 -4.04403e-015
lhumerus -25.1703 4.21326 73.8805
lradius 15.5454
lwrist 4.39658
lhand -24.2792 -6.37144
lfingers 7.12502
lthumb 2.20768 23.5969
rfemur -10.1184 -7.24702 20.4277
rtibia 52.6597
rfoot 26.8394 -6.22104
rtoes 24.381
lfemur -18.1377 5.96886 -14.1503
ltibia 54.7242
lfoot 27.2603 -2.31916
ltoes 1.30701
259
root 0.119925 21.2421 -3.51704 8.15658 2.68984 -2.10225
lowerback -1.63132 -0.124353 -1.41195
upperback 2.32281 -0.161439 1.40343
thorax 3.31099 -0.134359 2.22922
lowerneck -6.66672 -0.0901687 -2.76849
upperneck 23.7152 -0.158237 2.08839
head 8.45125 -0.108245 1.15869
rclavicle -1.90243e-015 -2.68981e-015
rhumerus -27.7948 -14.7171 -74.3248
rradius 26.4939
rwrist 39.0004
rhand -16.5445 -24.1464
rfingers 7.12502
rthumb 9.67484 -53.9042
lclavicle -1.90243e-015 -2.68981e-015
lhumerus -25.6641 4.5585 74.0528
lradius 15.2193
lwrist 4.14015
lhand -24.1838 -6.1382
lfingers 7.12502
lthumb 2.29985 23.8292
rfemur -11.498 -7.33407 20.4507
rtibia 54.9391
rfoot 25.9385 -5.92596
rtoes 24.3211
lfemur -19.2783 6.47547 -14.2948
ltibia 56.0818
lfoot 25.8161 -1.41794
ltoes 1.66259
260
root 0.120259 21.3485 -3.33864 7.8174 2.53534 -2.16374
lowerback -0.704271 -0.0302163 -1.30084
upperback 2.51789 -0.046753 1.40519
thorax 2.98305 -0.0727809 2.17265
lowerneck -6.70539 -0.118811 -2.70378
upperneck 23.7909 -0.192947 2.02507
head 8.48521 -0.125061 1.12392
rclavicle -6.61891e-015 -9.70318e-015
rhumerus -28.2076 -14.7467 -74.3588
rradius 26.3991
rwrist 39.0081
rhand -16.4707 -24.1049
rfingers 7.12502
rthumb 9.74601 -53.8594
lclavicle -6.61891e-015 -9.70318e-015
lhumerus -26.2148 4.78083 74.2749
lradius 14.9249
lwrist 3.84953
lhand -23.9597 -5.69722
lfingers 7.12502
lthumb 2.51624 24.2677
rfemur -13.0916 -7.44136 20.4673
rtibia 56.9988
rfoot 24.7368 -5.64295
rtoes 24.2052
lfemur -20.5844 7.0052 -14.5041
ltibia 57.2568
lfoot 24.2178 -0.294675
ltoes 2.06623
261
root 0.120548 21.442 -3.16147 7.65592 2.38307 -2.19539
lowerback 0.0604936 0.0442204 -1.24358
upperback 2.67035 0.0454953 1.41464
thorax 2.70474 -0.024021 2.15172
lowerneck -6.77128 -0.126779 -2.66196
upperneck 23.8639 -0.194594 1.96126
head 8.52246 -0.128308 1.09588
rclavicle -1.95679e-016 6.5102e-015
rhumerus -28.5691 -14.7014 -74.431
rradius 26.3298
rwrist 38.9756
rhand -16.4087 -24.1001
rfingers 7.12502
rthumb 9.80585 -53.8518
lclavicle -1.95679e-016 6.5102e-015
lhumerus -26.7869 4.8895 74.5632
lradius 14.6441
lwrist 3.56355
lhand -23.6691 -5.15929
lfingers 7.12502
lthumb 2.79695 24.8021
rfemur -14.8907 -7.56579 20.4906
rtibia 58.8174
rfoot 23.2834 -5.38214
rtoes 24.01
lfemur -22.0702 7.51428 -14.7765
ltibia 58.2602
lfoot 22.5295 0.943238
ltoes 2.53315
262
root 0.120445 21.5231 -2.98593 7.64855 2.2406 -2.1859
lowerback 0.695396 0.101201 -1.25592
upperback 2.7889 0.116683 1.43118
thorax 2.46618 0.0123961 2.17566
lowerneck -6.86298 -0.125017 -2.64983
upperneck 23.9168 -0.178467 1.90248
head 8.55727 -0.125219 1.07608
rclavicle 5.72748e-015 7.20594e-016
rhumerus -28.8853 -14.6131 -74.5235
rradius 26.3003
rwrist 38.9056
rhand -16.3675 -24.1053
rfingers 7.12502
rthumb 9.84561 -53.8551
lclavicle 5.72748e-015 7.20594e-016
lhumerus -27.3767 4.93835 74.9072
lradius 14.3496
lwrist 3.22335
lhand -23.4212 -4.82348
lfingers 7.12502
lthumb 3.03635 25.1346
rfemur -16.8603 -7.68963 20.5131
rtibia 60.3772
rfoot 21.6731 -5.16896
rtoes 23.7339
lfemur -23.7159 7.97062 -15.1198
ltibia 59.0893
lfoot 20.8262 2.1419
ltoes 2.94133
263
root 0.120018 21.592 -2.81178 7.75338 2.11543 -2.14069
lowerback 1.23807 0.143396 -1.32472
upperback 2.88636 0.168771 1.45189
thorax 2.25893 0.0378869 2.23476
lowerneck -6.96958 -0.115753 -2.6733
upperneck 23.9332 -0.150523 1.86481
head 8.58208 -0.117524 1.07031
rclavicle 7.13761e-015 5.8393e-015
rhumerus -29.1507 -14.5398 -74.6175
rradius 26.2879
rwrist 38.8362
rhand -16.3598 -24.1094
rfingers 7.12502
rthumb 9.853 -53.8589
lclavicle 7.13761e-015 5.8393e-015
lhumerus -27.9767 4.96051 75.2924
lradius 14.0331
lwrist 2.82787
lhand -23.2908 -4.79953
lfingers 7.12502
lthumb 3.16227 25.1568
rfemur -18.9414 -7.80423 20.5354
rtibia 61.6616
rfoot 20.0358 -5.01475
rtoes 23.3905
lfemur -25.4687 8.34693 -15.5158
ltibia 59.7315
lfoot 19.2014 3.17764
ltoes 3.22567
